<?xml version="1.0" encoding="UTF-8" standalone="no"?>
<!DOCTYPE svg PUBLIC "-//W3C//DTD SVG 1.1//EN"
 "http://www.w3.org/Graphics/SVG/1.1/DTD/svg11.dtd">
<!-- Generated by graphviz version 2.43.0 (0)
 -->
<!-- Title: Nonviolent_Training_Resources_HTML Pages: 1 -->
<svg width="1116pt" height="530pt"
 viewBox="0.00 0.00 1116.07 530.00" xmlns="http://www.w3.org/2000/svg" xmlns:xlink="http://www.w3.org/1999/xlink">
<g id="graph0" class="graph" transform="scale(1 1) rotate(0) translate(4 526)">
<title>Nonviolent_Training_Resources_HTML</title>
<polygon fill="white" stroke="transparent" points="-4,4 -4,-526 1112.07,-526 1112.07,4 -4,4"/>
<!-- root -->
<g id="node1" class="node">
<title>root</title>
<ellipse fill="#e0f2fe" stroke="black" cx="154.04" cy="-261" rx="154.07" ry="18"/>
<text text-anchor="middle" x="154.04" y="-257.3" font-family="Times,serif" font-size="14.00">Nonviolent Training Resources</text>
</g>
<!-- Coalition &amp; Partnerships -->
<g id="node2" class="node">
<title>Coalition &amp; Partnerships</title>
<polygon fill="#f1f5f9" stroke="black" points="563.57,-468 369.57,-468 369.57,-432 563.57,-432 563.57,-468"/>
<text text-anchor="middle" x="466.57" y="-446.3" font-family="Times,serif" font-size="14.00">Coalition &amp; Partnerships</text>
</g>
<!-- root&#45;&gt;Coalition &amp; Partnerships -->
<g id="edge1" class="edge">
<title>root&#45;&gt;Coalition &amp; Partnerships</title>
<path fill="none" stroke="black" d="M184.25,-278.78C240.52,-313.03 363.92,-388.13 426.91,-426.47"/>
<polygon fill="black" stroke="black" points="425.39,-429.64 435.75,-431.85 429.03,-423.66 425.39,-429.64"/>
</g>
<!-- Technical &amp; Support Tools -->
<g id="node3" class="node">
<title>Technical &amp; Support Tools</title>
<polygon fill="#f1f5f9" stroke="black" points="568.57,-333 364.57,-333 364.57,-297 568.57,-297 568.57,-333"/>
<text text-anchor="middle" x="466.57" y="-311.3" font-family="Times,serif" font-size="14.00">Technical &amp; Support Tools</text>
</g>
<!-- root&#45;&gt;Technical &amp; Support Tools -->
<g id="edge2" class="edge">
<title>root&#45;&gt;Technical &amp; Support Tools</title>
<path fill="none" stroke="black" d="M240.71,-275.9C275.9,-282.02 317.09,-289.18 354.54,-295.69"/>
<polygon fill="black" stroke="black" points="354.03,-299.16 364.49,-297.42 355.23,-292.26 354.03,-299.16"/>
</g>
<!-- Noncooperation &amp; Direct Action -->
<g id="node4" class="node">
<title>Noncooperation &amp; Direct Action</title>
<polygon fill="#f1f5f9" stroke="black" points="589.07,-198 344.07,-198 344.07,-162 589.07,-162 589.07,-198"/>
<text text-anchor="middle" x="466.57" y="-176.3" font-family="Times,serif" font-size="14.00">Noncooperation &amp; Direct Action</text>
</g>
<!-- root&#45;&gt;Noncooperation &amp; Direct Action -->
<g id="edge3" class="edge">
<title>root&#45;&gt;Noncooperation &amp; Direct Action</title>
<path fill="none" stroke="black" d="M217.88,-244.61C266.49,-231.93 334.12,-214.29 386.43,-200.64"/>
<polygon fill="black" stroke="black" points="387.55,-203.97 396.34,-198.06 385.78,-197.2 387.55,-203.97"/>
</g>
<!-- Communication &amp; Dialogue -->
<g id="node5" class="node">
<title>Communication &amp; Dialogue</title>
<polygon fill="#f1f5f9" stroke="black" points="573.07,-90 360.07,-90 360.07,-54 573.07,-54 573.07,-90"/>
<text text-anchor="middle" x="466.57" y="-68.3" font-family="Times,serif" font-size="14.00">Communication &amp; Dialogue</text>
</g>
<!-- root&#45;&gt;Communication &amp; Dialogue -->
<g id="edge4" class="edge">
<title>root&#45;&gt;Communication &amp; Dialogue</title>
<path fill="none" stroke="black" d="M184.25,-243.22C240.52,-208.97 363.92,-133.87 426.91,-95.53"/>
<polygon fill="black" stroke="black" points="429.03,-98.34 435.75,-90.15 425.39,-92.36 429.03,-98.34"/>
</g>
<!-- Building Local Partnerships for Good Trouble Lives On.pdf -->
<g id="node6" class="node">
<title>Building Local Partnerships for Good Trouble Lives On.pdf</title>
<g id="a_node6"><a xlink:href="https://osf.io/hu5w6/files/googledrive/References%2FBuilding%2520Local%2520Partnerships%2520for%2520Good%2520Trouble%2520Lives%2520On.pdf" xlink:title="Building Local Partnerships for Good Trouble Lives On.pdf" target="_blank">
<polygon fill="none" stroke="black" points="1077.57,-522 649.57,-522 649.57,-486 1083.57,-486 1083.57,-516 1077.57,-522"/>
<polyline fill="none" stroke="black" points="1077.57,-522 1077.57,-516 "/>
<polyline fill="none" stroke="black" points="1083.57,-516 1077.57,-516 "/>
<text text-anchor="middle" x="866.57" y="-500.3" font-family="Times,serif" font-size="14.00">Building Local Partnerships for Good Trouble Lives On.pdf</text>
</a>
</g>
</g>
<!-- Coalition &amp; Partnerships&#45;&gt;Building Local Partnerships for Good Trouble Lives On.pdf -->
<g id="edge5" class="edge">
<title>Coalition &amp; Partnerships&#45;&gt;Building Local Partnerships for Good Trouble Lives On.pdf</title>
<path fill="none" stroke="black" d="M563.64,-467.38C583.89,-470.79 605.16,-474.18 625.07,-477 644.11,-479.7 664.03,-482.29 683.91,-484.74"/>
<polygon fill="black" stroke="black" points="683.62,-488.23 693.97,-485.97 684.47,-481.28 683.62,-488.23"/>
</g>
<!-- Coalition Building Best Practices.pdf -->
<g id="node7" class="node">
<title>Coalition Building Best Practices.pdf</title>
<g id="a_node7"><a xlink:href="https://osf.io/hu5w6/files/googledrive/References%2FCoalition%2520Building%2520Best%2520Practices.pdf" xlink:title="Coalition Building Best Practices.pdf" target="_blank">
<polygon fill="none" stroke="black" points="1000.57,-468 726.57,-468 726.57,-432 1006.57,-432 1006.57,-462 1000.57,-468"/>
<polyline fill="none" stroke="black" points="1000.57,-468 1000.57,-462 "/>
<polyline fill="none" stroke="black" points="1006.57,-462 1000.57,-462 "/>
<text text-anchor="middle" x="866.57" y="-446.3" font-family="Times,serif" font-size="14.00">Coalition Building Best Practices.pdf</text>
</a>
</g>
</g>
<!-- Coalition &amp; Partnerships&#45;&gt;Coalition Building Best Practices.pdf -->
<g id="edge6" class="edge">
<title>Coalition &amp; Partnerships&#45;&gt;Coalition Building Best Practices.pdf</title>
<path fill="none" stroke="black" d="M563.66,-450C609.38,-450 665.1,-450 716.17,-450"/>
<polygon fill="black" stroke="black" points="716.31,-453.5 726.31,-450 716.31,-446.5 716.31,-453.5"/>
</g>
<!-- Cryptographic_Tools.pdf -->
<g id="node8" class="node">
<title>Cryptographic_Tools.pdf</title>
<g id="a_node8"><a xlink:href="https://osf.io/hu5w6/files/googledrive/References%2FCryptographic_Tools.pdf" xlink:title="Cryptographic_Tools.pdf" target="_blank">
<polygon fill="none" stroke="black" points="956.07,-414 771.07,-414 771.07,-378 962.07,-378 962.07,-408 956.07,-414"/>
<polyline fill="none" stroke="black" points="956.07,-414 956.07,-408 "/>
<polyline fill="none" stroke="black" points="962.07,-408 956.07,-408 "/>
<text text-anchor="middle" x="866.57" y="-392.3" font-family="Times,serif" font-size="14.00">Cryptographic_Tools.pdf</text>
</a>
</g>
</g>
<!-- Technical &amp; Support Tools&#45;&gt;Cryptographic_Tools.pdf -->
<g id="edge7" class="edge">
<title>Technical &amp; Support Tools&#45;&gt;Cryptographic_Tools.pdf</title>
<path fill="none" stroke="black" d="M511.63,-333.01C542.81,-345.03 585.87,-360.19 625.07,-369 669,-378.87 718.29,-385.21 760.76,-389.24"/>
<polygon fill="black" stroke="black" points="760.56,-392.74 770.84,-390.17 761.2,-385.77 760.56,-392.74"/>
</g>
<!-- DOGE Webinar Public Document.pdf -->
<g id="node9" class="node">
<title>DOGE Webinar Public Document.pdf</title>
<g id="a_node9"><a xlink:href="https://osf.io/hu5w6/files/googledrive/References%2FDOGE%2520Webinar%2520Public%2520Document.pdf" xlink:title="DOGE Webinar Public Document.pdf" target="_blank">
<polygon fill="none" stroke="black" points="999.57,-360 727.57,-360 727.57,-324 1005.57,-324 1005.57,-354 999.57,-360"/>
<polyline fill="none" stroke="black" points="999.57,-360 999.57,-354 "/>
<polyline fill="none" stroke="black" points="1005.57,-354 999.57,-354 "/>
<text text-anchor="middle" x="866.57" y="-338.3" font-family="Times,serif" font-size="14.00">DOGE Webinar Public Document.pdf</text>
</a>
</g>
</g>
<!-- Technical &amp; Support Tools&#45;&gt;DOGE Webinar Public Document.pdf -->
<g id="edge8" class="edge">
<title>Technical &amp; Support Tools&#45;&gt;DOGE Webinar Public Document.pdf</title>
<path fill="none" stroke="black" d="M568.78,-321.87C613.81,-324.92 667.73,-328.58 717.19,-331.93"/>
<polygon fill="black" stroke="black" points="717.12,-335.44 727.34,-332.62 717.6,-328.45 717.12,-335.44"/>
</g>
<!-- Gemini 2.5 Pro (experimental) Analysis of AI anomalies Paper.pdf -->
<g id="node10" class="node">
<title>Gemini 2.5 Pro (experimental) Analysis of AI anomalies Paper.pdf</title>
<g id="a_node10"><a xlink:href="https://osf.io/hu5w6/files/googledrive/References%2FGemini%25202.5%2520Pro%2520%2528experimental%2529%2520Analysis%2520of%2520AI%2520anomalies%2520Paper.pdf" xlink:title="Gemini 2.5 Pro (experimental) Analysis of AI anomalies Paper.pdf" target="_blank">
<polygon fill="none" stroke="black" points="1102.07,-306 625.07,-306 625.07,-270 1108.07,-270 1108.07,-300 1102.07,-306"/>
<polyline fill="none" stroke="black" points="1102.07,-306 1102.07,-300 "/>
<polyline fill="none" stroke="black" points="1108.07,-300 1102.07,-300 "/>
<text text-anchor="middle" x="866.57" y="-284.3" font-family="Times,serif" font-size="14.00">Gemini 2.5 Pro (experimental) Analysis of AI anomalies Paper.pdf</text>
</a>
</g>
</g>
<!-- Technical &amp; Support Tools&#45;&gt;Gemini 2.5 Pro (experimental) Analysis of AI anomalies Paper.pdf -->
<g id="edge9" class="edge">
<title>Technical &amp; Support Tools&#45;&gt;Gemini 2.5 Pro (experimental) Analysis of AI anomalies Paper.pdf</title>
<path fill="none" stroke="black" d="M568.78,-308.13C583.37,-307.14 598.89,-306.09 614.89,-305.01"/>
<polygon fill="black" stroke="black" points="615.17,-308.49 624.91,-304.33 614.7,-301.51 615.17,-308.49"/>
</g>
<!-- Freedom Trainers_ Online June 25th Noncooperation 101.pdf -->
<g id="node11" class="node">
<title>Freedom Trainers_ Online June 25th Noncooperation 101.pdf</title>
<g id="a_node11"><a xlink:href="https://osf.io/hu5w6/files/googledrive/References%2FFreedom%2520Trainers_%2520Online%2520June%252025th%2520Noncooperation%2520101.pdf" xlink:title="Freedom Trainers_ Online June 25th Noncooperation 101.pdf" target="_blank">
<polygon fill="none" stroke="black" points="1087.07,-252 640.07,-252 640.07,-216 1093.07,-216 1093.07,-246 1087.07,-252"/>
<polyline fill="none" stroke="black" points="1087.07,-252 1087.07,-246 "/>
<polyline fill="none" stroke="black" points="1093.07,-246 1087.07,-246 "/>
<text text-anchor="middle" x="866.57" y="-230.3" font-family="Times,serif" font-size="14.00">Freedom Trainers_ Online June 25th Noncooperation 101.pdf</text>
</a>
</g>
</g>
<!-- Noncooperation &amp; Direct Action&#45;&gt;Freedom Trainers_ Online June 25th Noncooperation 101.pdf -->
<g id="edge10" class="edge">
<title>Noncooperation &amp; Direct Action&#45;&gt;Freedom Trainers_ Online June 25th Noncooperation 101.pdf</title>
<path fill="none" stroke="black" d="M567.42,-198.01C586.53,-201.21 606.39,-204.35 625.07,-207 644.11,-209.7 664.03,-212.29 683.91,-214.74"/>
<polygon fill="black" stroke="black" points="683.62,-218.23 693.97,-215.97 684.47,-211.28 683.62,-218.23"/>
</g>
<!-- Good Trouble Lives On National Day of Action &#45; Host Toolkit.pdf -->
<g id="node12" class="node">
<title>Good Trouble Lives On National Day of Action &#45; Host Toolkit.pdf</title>
<g id="a_node12"><a xlink:href="https://osf.io/hu5w6/files/googledrive/References%2FGood%2520Trouble%2520Lives%2520On%2520National%2520Day%2520of%2520Action%2520-%2520Host%2520Toolkit.pdf" xlink:title="Good Trouble Lives On National Day of Action &#45; Host Toolkit.pdf" target="_blank">
<polygon fill="none" stroke="black" points="1096.57,-198 630.57,-198 630.57,-162 1102.57,-162 1102.57,-192 1096.57,-198"/>
<polyline fill="none" stroke="black" points="1096.57,-198 1096.57,-192 "/>
<polyline fill="none" stroke="black" points="1102.57,-192 1096.57,-192 "/>
<text text-anchor="middle" x="866.57" y="-176.3" font-family="Times,serif" font-size="14.00">Good Trouble Lives On National Day of Action &#45; Host Toolkit.pdf</text>
</a>
</g>
</g>
<!-- Noncooperation &amp; Direct Action&#45;&gt;Good Trouble Lives On National Day of Action &#45; Host Toolkit.pdf -->
<g id="edge11" class="edge">
<title>Noncooperation &amp; Direct Action&#45;&gt;Good Trouble Lives On National Day of Action &#45; Host Toolkit.pdf</title>
<path fill="none" stroke="black" d="M589.15,-180C599.2,-180 609.56,-180 620.1,-180"/>
<polygon fill="black" stroke="black" points="620.26,-183.5 630.26,-180 620.26,-176.5 620.26,-183.5"/>
</g>
<!-- Mass Noncooperation Examples.pdf -->
<g id="node13" class="node">
<title>Mass Noncooperation Examples.pdf</title>
<g id="a_node13"><a xlink:href="https://osf.io/hu5w6/files/googledrive/References%2FMass%2520Noncooperation%2520Examples.pdf" xlink:title="Mass Noncooperation Examples.pdf" target="_blank">
<polygon fill="none" stroke="black" points="997.57,-144 729.57,-144 729.57,-108 1003.57,-108 1003.57,-138 997.57,-144"/>
<polyline fill="none" stroke="black" points="997.57,-144 997.57,-138 "/>
<polyline fill="none" stroke="black" points="1003.57,-138 997.57,-138 "/>
<text text-anchor="middle" x="866.57" y="-122.3" font-family="Times,serif" font-size="14.00">Mass Noncooperation Examples.pdf</text>
</a>
</g>
</g>
<!-- Noncooperation &amp; Direct Action&#45;&gt;Mass Noncooperation Examples.pdf -->
<g id="edge12" class="edge">
<title>Noncooperation &amp; Direct Action&#45;&gt;Mass Noncooperation Examples.pdf</title>
<path fill="none" stroke="black" d="M567.42,-161.99C586.53,-158.79 606.39,-155.65 625.07,-153 655.48,-148.69 688.13,-144.64 719.26,-141.05"/>
<polygon fill="black" stroke="black" points="719.77,-144.52 729.31,-139.91 718.97,-137.56 719.77,-144.52"/>
</g>
<!-- Noncooperation training&#45;venue of Training Agendas.pdf -->
<g id="node14" class="node">
<title>Noncooperation training&#45;venue of Training Agendas.pdf</title>
<g id="a_node14"><a xlink:href="https://osf.io/hu5w6/files/googledrive/References%2FNoncooperation%2520training-venue%2520of%2520Training%2520Agendas.pdf" xlink:title="Noncooperation training&#45;venue of Training Agendas.pdf" target="_blank">
<polygon fill="none" stroke="black" points="1067.57,-90 659.57,-90 659.57,-54 1073.57,-54 1073.57,-84 1067.57,-90"/>
<polyline fill="none" stroke="black" points="1067.57,-90 1067.57,-84 "/>
<polyline fill="none" stroke="black" points="1073.57,-84 1067.57,-84 "/>
<text text-anchor="middle" x="866.57" y="-68.3" font-family="Times,serif" font-size="14.00">Noncooperation training&#45;venue of Training Agendas.pdf</text>
</a>
</g>
</g>
<!-- Noncooperation &amp; Direct Action&#45;&gt;Noncooperation training&#45;venue of Training Agendas.pdf -->
<g id="edge13" class="edge">
<title>Noncooperation &amp; Direct Action&#45;&gt;Noncooperation training&#45;venue of Training Agendas.pdf</title>
<path fill="none" stroke="black" d="M495,-161.96C525.43,-142.9 576.65,-113.63 625.07,-99 633.17,-96.55 641.47,-94.33 649.91,-92.3"/>
<polygon fill="black" stroke="black" points="650.91,-95.66 659.87,-90.01 649.34,-88.84 650.91,-95.66"/>
</g>
<!-- How to talk with people you might disagree with.pdf -->
<g id="node15" class="node">
<title>How to talk with people you might disagree with.pdf</title>
<g id="a_node15"><a xlink:href="https://osf.io/hu5w6/files/googledrive/References%2FHow%2520to%2520talk%2520with%2520people%2520you%2520might%2520disagree%2520with.pdf" xlink:title="How to talk with people you might disagree with.pdf" target="_blank">
<polygon fill="none" stroke="black" points="1057.07,-36 670.07,-36 670.07,0 1063.07,0 1063.07,-30 1057.07,-36"/>
<polyline fill="none" stroke="black" points="1057.07,-36 1057.07,-30 "/>
<polyline fill="none" stroke="black" points="1063.07,-30 1057.07,-30 "/>
<text text-anchor="middle" x="866.57" y="-14.3" font-family="Times,serif" font-size="14.00">How to talk with people you might disagree with.pdf</text>
</a>
</g>
</g>
<!-- Communication &amp; Dialogue&#45;&gt;How to talk with people you might disagree with.pdf -->
<g id="edge14" class="edge">
<title>Communication &amp; Dialogue&#45;&gt;How to talk with people you might disagree with.pdf</title>
<path fill="none" stroke="black" d="M567.42,-53.99C586.53,-50.79 606.39,-47.65 625.07,-45 644.11,-42.3 664.03,-39.71 683.91,-37.26"/>
<polygon fill="black" stroke="black" points="684.47,-40.72 693.97,-36.03 683.62,-33.77 684.47,-40.72"/>
</g>
</g>
</svg>
